<svg width="307" height="125" viewBox="0 0 307 125" fill="none" xmlns="http://www.w3.org/2000/svg">
<g clip-path="url(#clip0_87_11214)">
<path opacity="0.9" d="M259.903 92.5632C284.703 92.5632 304.807 72.5138 304.807 47.7816C304.807 23.0494 284.703 3 259.903 3C235.104 3 215 23.0494 215 47.7816C215 72.5138 235.104 92.5632 259.903 92.5632Z" fill="#FFE239"/>
<path d="M3.0874 111.337C3.63859 118.865 12.4904 121.534 19.0066 121.534C25.9385 121.534 33.7626 118.32 33.9542 110.792C34.1597 102.714 26.06 101.759 18.5815 100.664C9.7998 99.5694 1.08349 98.13 1.08349 88.5522C1.08349 79.3844 10.2109 75.2104 18.2405 75.2104C27.1577 75.2104 35.5237 78.6996 36.0795 87.7323H32.8564C32.3193 80.3208 24.2896 78.2617 18.2545 78.2617C11.5281 78.2617 4.59617 81.2711 4.59617 88.4591C4.59617 96.3784 12.8314 96.9421 19.1467 97.6968C28.4095 99.0058 37.6023 100.855 37.3968 110.871C37.1912 120.313 28.0545 124.557 19.1467 124.557C10.3603 124.557 0.546309 120.859 -0.00488281 111.346L3.0874 111.337Z" fill="#121212"/>
<path d="M51.1907 110.023L44.6511 123.849H41.0356V123.449L63.5271 75.8069H65.1059L87.4199 123.449V123.859H83.8511L77.3349 110.032L51.1907 110.023ZM52.3538 107.014H76.1765L64.3072 81.4855L52.3538 107.014Z" fill="#121212"/>
<path d="M108.005 117.691L115.689 98.1254L124.681 75.9326H128.315V76.3985L108.622 123.961H107.183L87.3496 76.4218V75.9559H91.0538L98.7425 94.9158C99.1535 96.0757 99.5646 97.1052 100.046 98.1301L107.935 117.696L108.005 117.691Z" fill="#121212"/>
<path d="M138.33 110.023L131.814 123.849H128.175V123.449L150.685 75.8162H152.278L174.564 123.449V123.859H170.995L164.479 110.032L138.33 110.023ZM139.498 107.014H163.321L151.447 81.4855L139.498 107.014Z" fill="#121212"/>
<path d="M185.677 83.3862L186.022 99.742V123.831H182.519V75.8488H183.892L216.763 116.154L216.422 98.773V73.9109H219.921V123.849H218.753L185.677 83.3862Z" fill="#121212"/>
<path d="M241.997 77.0973C247.991 76.8269 253.667 74.3351 257.916 70.1096C262.197 65.7302 264.601 59.8609 264.619 53.7445C264.619 53.1855 264.619 52.6125 264.581 52.0442C264.114 43.4167 257.299 39.6713 251.213 39.8577C244.804 40.0347 238.32 44.5953 238.32 52.9712V73.4404H225.017V77.1345H238.32V125H249.751V121.329H241.997V77.0973ZM241.997 73.4218V52.9759C241.997 46.6637 246.827 43.659 251.316 43.5285H251.624C255.683 43.5285 260.55 45.8158 260.91 52.2585C260.938 52.7243 260.947 53.2181 260.943 53.7026C260.803 64.5008 252.866 72.723 241.997 73.4218Z" fill="#121212"/>
<path d="M241.286 8.10571H240.819V11.7719H241.286C253.32 11.7855 264.856 16.5591 273.365 25.0453C281.873 33.5315 286.659 45.0373 286.671 57.038C286.671 69.108 279.706 81.5135 267.561 91.0446C264.542 93.3972 262.102 96.4061 260.425 99.8419C258.749 103.278 257.881 107.05 257.888 110.871V125.009H261.582V110.871C261.58 107.61 262.324 104.391 263.757 101.459C265.191 98.5282 267.276 95.9619 269.855 93.9562C282.887 83.7076 290.366 70.2493 290.366 57.0473C290.354 44.0702 285.179 31.6281 275.977 22.4524C266.775 13.2766 254.299 8.11681 241.286 8.10571V8.10571Z" fill="#121212"/>
</g>
<defs>
<clipPath id="clip0_87_11214">
<rect width="307" height="125" fill="white"/>
</clipPath>
</defs>
</svg>
