<svg width="36" height="48" viewBox="0 0 36 48" fill="none" xmlns="http://www.w3.org/2000/svg">
<path opacity="0.9" d="M18.1013 34.9591C27.6526 34.9591 35.3955 27.1333 35.3955 17.4796C35.3955 7.82587 27.6526 0 18.1013 0C8.55 0 0.807129 7.82587 0.807129 17.4796C0.807129 27.1333 8.55 34.9591 18.1013 34.9591Z" fill="#FFE239"/>
<path d="M11.205 28.9223C13.5136 28.8168 15.7 27.8441 17.3362 26.1948C18.9851 24.4854 19.911 22.1944 19.9178 19.807C19.9178 19.5888 19.9178 19.3652 19.9034 19.1434C19.7235 15.7758 17.0987 14.3139 14.7546 14.3866C12.2863 14.4557 9.7892 16.2359 9.7892 19.5052V27.4949H4.66553V28.9369H9.7892V32.894V38.2785V47.6201H14.1915V46.1873H11.205V28.9223ZM11.205 27.4876V23.4973V19.507C11.205 17.0432 13.0653 15.8704 14.7941 15.8195H14.9129C16.4762 15.8195 18.3508 16.7123 18.4894 19.227C18.5002 19.4088 18.5038 19.6016 18.502 19.7907C18.448 24.0056 15.3914 27.2149 11.205 27.4876Z" fill="white"/>
<path d="M10.9314 1.99292H10.7515V3.42394H10.9314C15.5659 3.42924 20.0091 5.29251 23.2861 8.60493C26.5631 11.9174 28.4061 16.4084 28.4109 21.0926C28.4109 25.8039 25.7285 30.6461 21.051 34.3664C19.8882 35.2847 18.9482 36.4591 18.3025 37.8002C17.6568 39.1413 17.3226 40.6137 17.3252 42.1052V47.6238H18.7482V42.1052C18.7472 40.8322 19.0336 39.5757 19.5858 38.4316C20.1379 37.2874 20.9412 36.2857 21.9343 35.5028C26.9536 31.5025 29.8339 26.2494 29.8339 21.0962C29.8291 16.0309 27.836 11.1744 24.2921 7.59283C20.7482 4.01125 15.943 1.99725 10.9314 1.99292Z" fill="white"/>
</svg>
