<svg width="118" height="48" viewBox="0 0 118 48" fill="none" xmlns="http://www.w3.org/2000/svg">
<path opacity="0.9" d="M100.101 34.9591C109.653 34.9591 117.396 27.1333 117.396 17.4796C117.396 7.82587 109.653 0 100.101 0C90.55 0 82.8071 7.82587 82.8071 17.4796C82.8071 27.1333 90.55 34.9591 100.101 34.9591Z" fill="#FFE239"/>
<path d="M1.19097 42.2869C1.40325 45.2253 4.81244 46.2672 7.3221 46.2672C9.99188 46.2672 13.0053 45.0126 13.079 42.0742C13.1582 38.9212 10.0387 38.5484 7.15839 38.1211C3.77619 37.6938 0.419177 37.132 0.419177 33.3935C0.419177 29.815 3.93451 28.1858 7.02706 28.1858C10.4614 28.1858 13.6835 29.5477 13.8976 33.0735H12.6563C12.4494 30.1805 9.35682 29.3768 7.03246 29.3768C4.44184 29.3768 1.77206 30.5514 1.77206 33.3571C1.77206 36.4483 4.94377 36.6683 7.37607 36.9628C10.9436 37.4738 14.4841 38.1957 14.4049 42.1051C14.3258 45.7908 10.8068 47.4473 7.37607 47.4473C3.99208 47.4473 0.212287 46.0036 0 42.2905L1.19097 42.2869Z" fill="white"/>
<path d="M19.7178 41.7741L17.1991 47.1708H15.8066V47.0145L24.469 28.4185H25.0771L33.6711 47.0145V47.1745H32.2967L29.787 41.7777L19.7178 41.7741ZM20.1657 40.5994H29.3408L24.7695 30.635L20.1657 40.5994Z" fill="white"/>
<path d="M41.5989 44.7672L44.5583 37.1303L48.0215 28.4678H49.4212V28.6496L41.8364 47.2147H41.2823L33.6436 28.6587V28.4769H35.0702L38.0314 35.8774C38.1897 36.3302 38.3481 36.7321 38.5334 37.1321L41.5719 44.7691L41.5989 44.7672Z" fill="white"/>
<path d="M53.2788 41.7743L50.7691 47.1711H49.3677V47.0147L58.0373 28.4224H58.6507L67.234 47.0147V47.1748H65.8595L63.3498 41.778L53.2788 41.7743ZM53.7286 40.5997H62.9037L58.3305 30.6353L53.7286 40.5997Z" fill="white"/>
<path d="M71.514 31.3769L71.6471 37.7611V47.1636H70.2979V28.4349H70.8268L83.4866 44.167L83.3553 37.3829V27.6785H84.7028V47.1709H84.253L71.514 31.3769Z" fill="white"/>
<path d="M93.205 28.9223C95.5136 28.8168 97.7 27.8441 99.3362 26.1948C100.985 24.4854 101.911 22.1944 101.918 19.807C101.918 19.5888 101.918 19.3652 101.903 19.1434C101.724 15.7758 99.0987 14.3139 96.7546 14.3866C94.2863 14.4557 91.7892 16.2359 91.7892 19.5052V27.4949H86.6655V28.9369H91.7892V32.894V38.2785V47.6201H96.1915V46.1873H93.205V28.9223ZM93.205 27.4876V23.4973V19.507C93.205 17.0432 95.0653 15.8704 96.7941 15.8195H96.9129C98.4762 15.8195 100.351 16.7123 100.489 19.227C100.5 19.4088 100.504 19.6016 100.502 19.7907C100.448 24.0056 97.3914 27.2149 93.205 27.4876Z" fill="white"/>
<path d="M92.9314 1.99292H92.7515V3.42394H92.9314C97.5659 3.42924 102.009 5.29251 105.286 8.60493C108.563 11.9174 110.406 16.4084 110.411 21.0926C110.411 25.8039 107.728 30.6461 103.051 34.3664C101.888 35.2847 100.948 36.4591 100.302 37.8002C99.6568 39.1413 99.3226 40.6137 99.3252 42.1052V47.6238H100.748V42.1052C100.747 40.8322 101.034 39.5757 101.586 38.4316C102.138 37.2874 102.941 36.2857 103.934 35.5028C108.954 31.5025 111.834 26.2494 111.834 21.0962C111.829 16.0309 109.836 11.1744 106.292 7.59283C102.748 4.01125 97.943 1.99725 92.9314 1.99292Z" fill="white"/>
</svg>
